<?xml version="1.0" encoding="UTF-8" standalone="no"?>
<!DOCTYPE svg PUBLIC "-//W3C//DTD SVG 1.1//EN"
 "http://www.w3.org/Graphics/SVG/1.1/DTD/svg11.dtd">
<!-- Generated by graphviz version 13.1.2 (20250808.2320)
 -->
<!-- Title: G Pages: 1 -->
<svg width="3134pt" height="1029pt"
 viewBox="0.00 0.00 3134.00 1029.00" xmlns="http://www.w3.org/2000/svg" xmlns:xlink="http://www.w3.org/1999/xlink">
<g id="graph0" class="graph" transform="scale(1 1) rotate(0) translate(21.6 1007.75)">
<title>G</title>
<polygon fill="#111111" stroke="none" points="-21.6,21.6 -21.6,-1007.75 3112.6,-1007.75 3112.6,21.6 -21.6,21.6"/>
<!-- api&#45;handling/api&#45;client.js -->
<g id="node1" class="node">
<title>api&#45;handling/api&#45;client.js</title>
<path fill="none" stroke="#c6c5fe" d="M2912.58,-699.75C2912.58,-699.75 2767.67,-699.75 2767.67,-699.75 2763.71,-699.75 2759.75,-695.79 2759.75,-691.83 2759.75,-691.83 2759.75,-683.92 2759.75,-683.92 2759.75,-679.96 2763.71,-676 2767.67,-676 2767.67,-676 2912.58,-676 2912.58,-676 2916.54,-676 2920.5,-679.96 2920.5,-683.92 2920.5,-683.92 2920.5,-691.83 2920.5,-691.83 2920.5,-695.79 2916.54,-699.75 2912.58,-699.75"/>
<text xml:space="preserve" text-anchor="middle" x="2840.12" y="-682.45" font-family="Arial" font-size="14.00" fill="#c6c5fe">api&#45;handling/api&#45;client.js</text>
</g>
<!-- secrets&#45;config.js -->
<g id="node2" class="node">
<title>secrets&#45;config.js</title>
<path fill="none" stroke="#cfffac" d="M3083.08,-699.75C3083.08,-699.75 2985.42,-699.75 2985.42,-699.75 2981.46,-699.75 2977.5,-695.79 2977.5,-691.83 2977.5,-691.83 2977.5,-683.92 2977.5,-683.92 2977.5,-679.96 2981.46,-676 2985.42,-676 2985.42,-676 3083.08,-676 3083.08,-676 3087.04,-676 3091,-679.96 3091,-683.92 3091,-683.92 3091,-691.83 3091,-691.83 3091,-695.79 3087.04,-699.75 3083.08,-699.75"/>
<text xml:space="preserve" text-anchor="middle" x="3034.25" y="-682.45" font-family="Arial" font-size="14.00" fill="#cfffac">secrets&#45;config.js</text>
</g>
<!-- api&#45;handling/api&#45;client.js&#45;&gt;secrets&#45;config.js -->
<g id="edge1" class="edge">
<title>api&#45;handling/api&#45;client.js&#45;&gt;secrets&#45;config.js</title>
<path fill="none" stroke="#757575" d="M2920.93,-687.88C2935.82,-687.88 2951.24,-687.88 2965.72,-687.88"/>
<polygon fill="#757575" stroke="#757575" points="2965.58,-691.38 2975.58,-687.88 2965.58,-684.38 2965.58,-691.38"/>
</g>
<!-- api&#45;handling/api&#45;handler&#45;exports.js -->
<g id="node3" class="node">
<title>api&#45;handling/api&#45;handler&#45;exports.js</title>
<path fill="none" stroke="#c6c5fe" d="M2685.83,-678.75C2685.83,-678.75 2478.67,-678.75 2478.67,-678.75 2474.71,-678.75 2470.75,-674.79 2470.75,-670.83 2470.75,-670.83 2470.75,-662.92 2470.75,-662.92 2470.75,-658.96 2474.71,-655 2478.67,-655 2478.67,-655 2685.83,-655 2685.83,-655 2689.79,-655 2693.75,-658.96 2693.75,-662.92 2693.75,-662.92 2693.75,-670.83 2693.75,-670.83 2693.75,-674.79 2689.79,-678.75 2685.83,-678.75"/>
<text xml:space="preserve" text-anchor="middle" x="2582.25" y="-661.45" font-family="Arial" font-size="14.00" fill="#c6c5fe">api&#45;handling/api&#45;handler&#45;exports.js</text>
</g>
<!-- api&#45;handling/api&#45;handler&#45;exports.js&#45;&gt;api&#45;handling/api&#45;client.js -->
<g id="edge2" class="edge">
<title>api&#45;handling/api&#45;handler&#45;exports.js&#45;&gt;api&#45;handling/api&#45;client.js</title>
<path fill="none" stroke="#757575" d="M2693.99,-675.96C2712.05,-677.45 2730.58,-678.97 2748.09,-680.4"/>
<polygon fill="#757575" stroke="#757575" points="2747.68,-683.88 2757.93,-681.21 2748.25,-676.91 2747.68,-683.88"/>
</g>
<!-- api&#45;handling/api&#45;handler&#45;utils.js -->
<g id="node4" class="node">
<title>api&#45;handling/api&#45;handler&#45;utils.js</title>
<path fill="none" stroke="#cfffac" d="M2933.58,-657.75C2933.58,-657.75 2746.67,-657.75 2746.67,-657.75 2742.71,-657.75 2738.75,-653.79 2738.75,-649.83 2738.75,-649.83 2738.75,-641.92 2738.75,-641.92 2738.75,-637.96 2742.71,-634 2746.67,-634 2746.67,-634 2933.58,-634 2933.58,-634 2937.54,-634 2941.5,-637.96 2941.5,-641.92 2941.5,-641.92 2941.5,-649.83 2941.5,-649.83 2941.5,-653.79 2937.54,-657.75 2933.58,-657.75"/>
<text xml:space="preserve" text-anchor="middle" x="2840.12" y="-640.45" font-family="Arial" font-size="14.00" fill="#cfffac">api&#45;handling/api&#45;handler&#45;utils.js</text>
</g>
<!-- api&#45;handling/api&#45;handler&#45;exports.js&#45;&gt;api&#45;handling/api&#45;handler&#45;utils.js -->
<g id="edge3" class="edge">
<title>api&#45;handling/api&#45;handler&#45;exports.js&#45;&gt;api&#45;handling/api&#45;handler&#45;utils.js</title>
<path fill="none" stroke="#757575" d="M2693.99,-657.79C2704.92,-656.89 2716.02,-655.98 2726.96,-655.08"/>
<polygon fill="#757575" stroke="#757575" points="2727.1,-658.58 2736.78,-654.27 2726.53,-651.6 2727.1,-658.58"/>
</g>
<!-- config.js -->
<g id="node5" class="node">
<title>config.js</title>
<path fill="none" stroke="#cfffac" d="M2864.96,-307.75C2864.96,-307.75 2815.29,-307.75 2815.29,-307.75 2811.33,-307.75 2807.38,-303.79 2807.38,-299.83 2807.38,-299.83 2807.38,-291.92 2807.38,-291.92 2807.38,-287.96 2811.33,-284 2815.29,-284 2815.29,-284 2864.96,-284 2864.96,-284 2868.92,-284 2872.88,-287.96 2872.88,-291.92 2872.88,-291.92 2872.88,-299.83 2872.88,-299.83 2872.88,-303.79 2868.92,-307.75 2864.96,-307.75"/>
<text xml:space="preserve" text-anchor="middle" x="2840.12" y="-290.45" font-family="Arial" font-size="14.00" fill="#cfffac">config.js</text>
</g>
<!-- api&#45;handling/api&#45;handler&#45;exports.js&#45;&gt;config.js -->
<g id="edge4" class="edge">
<title>api&#45;handling/api&#45;handler&#45;exports.js&#45;&gt;config.js</title>
<path fill="none" stroke="#757575" d="M2689.61,-654.59C2694.26,-652.1 2698.68,-649.21 2702.75,-645.88 2807.48,-560.03 2832.04,-383.16 2837.58,-319.42"/>
<polygon fill="#757575" stroke="#757575" points="2841.04,-319.99 2838.33,-309.75 2834.06,-319.45 2841.04,-319.99"/>
</g>
<!-- debug/memory&#45;monitor.js -->
<g id="node6" class="node">
<title>debug/memory&#45;monitor.js</title>
<path fill="none" stroke="#c6c5fe" d="M969.08,-681.75C969.08,-681.75 814.42,-681.75 814.42,-681.75 810.46,-681.75 806.5,-677.79 806.5,-673.83 806.5,-673.83 806.5,-665.92 806.5,-665.92 806.5,-661.96 810.46,-658 814.42,-658 814.42,-658 969.08,-658 969.08,-658 973.04,-658 977,-661.96 977,-665.92 977,-665.92 977,-673.83 977,-673.83 977,-677.79 973.04,-681.75 969.08,-681.75"/>
<text xml:space="preserve" text-anchor="middle" x="891.75" y="-664.45" font-family="Arial" font-size="14.00" fill="#c6c5fe">debug/memory&#45;monitor.js</text>
</g>
<!-- log&#45;handling/logger.js -->
<g id="node7" class="node">
<title>log&#45;handling/logger.js</title>
<path fill="none" stroke="#ff6c60" d="M1846.58,-568.75C1846.58,-568.75 1718.92,-568.75 1718.92,-568.75 1714.96,-568.75 1711,-564.79 1711,-560.83 1711,-560.83 1711,-552.92 1711,-552.92 1711,-548.96 1714.96,-545 1718.92,-545 1718.92,-545 1846.58,-545 1846.58,-545 1850.54,-545 1854.5,-548.96 1854.5,-552.92 1854.5,-552.92 1854.5,-560.83 1854.5,-560.83 1854.5,-564.79 1850.54,-568.75 1846.58,-568.75"/>
<text xml:space="preserve" text-anchor="middle" x="1782.75" y="-551.45" font-family="Arial" font-size="14.00" fill="#ff6c60">log&#45;handling/logger.js</text>
</g>
<!-- debug/memory&#45;monitor.js&#45;&gt;log&#45;handling/logger.js -->
<g id="edge5" class="edge">
<title>debug/memory&#45;monitor.js&#45;&gt;log&#45;handling/logger.js</title>
<path fill="none" stroke="#757575" d="M977.33,-673.83C1122.79,-678.35 1428.45,-677.76 1675,-609.88 1702.82,-602.22 1732,-587.18 1752.81,-575.07"/>
<polygon fill="#757575" stroke="#757575" points="1754.5,-578.14 1761.3,-570.01 1750.91,-572.12 1754.5,-578.14"/>
</g>
<!-- session&#45;handling/session&#45;manager.js -->
<g id="node15" class="node">
<title>session&#45;handling/session&#45;manager.js</title>
<path fill="none" stroke="#ff6c60" d="M2120.58,-645.75C2120.58,-645.75 1898.42,-645.75 1898.42,-645.75 1894.46,-645.75 1890.5,-641.79 1890.5,-637.83 1890.5,-637.83 1890.5,-629.92 1890.5,-629.92 1890.5,-625.96 1894.46,-622 1898.42,-622 1898.42,-622 2120.58,-622 2120.58,-622 2124.54,-622 2128.5,-625.96 2128.5,-629.92 2128.5,-629.92 2128.5,-637.83 2128.5,-637.83 2128.5,-641.79 2124.54,-645.75 2120.58,-645.75"/>
<text xml:space="preserve" text-anchor="middle" x="2009.5" y="-628.45" font-family="Arial" font-size="14.00" fill="#ff6c60">session&#45;handling/session&#45;manager.js</text>
</g>
<!-- log&#45;handling/logger.js&#45;&gt;session&#45;handling/session&#45;manager.js -->
<g id="edge25" class="edge">
<title>log&#45;handling/logger.js&#45;&gt;session&#45;handling/session&#45;manager.js</title>
<path fill="none" stroke="#757575" d="M1820.91,-569.21C1841.03,-578.56 1866.61,-590.66 1890.5,-598.88 1914.94,-607.28 1943.18,-613.62 1965.91,-618.93"/>
<polygon fill="#757575" stroke="#757575" points="1964.9,-622.29 1975.43,-621.19 1966.51,-615.48 1964.9,-622.29"/>
</g>
<!-- debug/performance&#45;monitor.js -->
<g id="node8" class="node">
<title>debug/performance&#45;monitor.js</title>
<path fill="none" stroke="#cfffac" d="M676.33,-573.75C676.33,-573.75 495.42,-573.75 495.42,-573.75 491.46,-573.75 487.5,-569.79 487.5,-565.83 487.5,-565.83 487.5,-557.92 487.5,-557.92 487.5,-553.96 491.46,-550 495.42,-550 495.42,-550 676.33,-550 676.33,-550 680.29,-550 684.25,-553.96 684.25,-557.92 684.25,-557.92 684.25,-565.83 684.25,-565.83 684.25,-569.79 680.29,-573.75 676.33,-573.75"/>
<text xml:space="preserve" text-anchor="middle" x="585.88" y="-556.45" font-family="Arial" font-size="14.00" fill="#cfffac">debug/performance&#45;monitor.js</text>
</g>
<!-- driver.js -->
<g id="node9" class="node">
<title>driver.js</title>
<path fill="none" stroke="#c6c5fe" d="M150.08,-375.75C150.08,-375.75 103.42,-375.75 103.42,-375.75 99.46,-375.75 95.5,-371.79 95.5,-367.83 95.5,-367.83 95.5,-359.92 95.5,-359.92 95.5,-355.96 99.46,-352 103.42,-352 103.42,-352 150.08,-352 150.08,-352 154.04,-352 158,-355.96 158,-359.92 158,-359.92 158,-367.83 158,-367.83 158,-371.79 154.04,-375.75 150.08,-375.75"/>
<text xml:space="preserve" text-anchor="middle" x="126.75" y="-358.45" font-family="Arial" font-size="14.00" fill="#c6c5fe">driver.js</text>
</g>
<!-- driver.js&#45;&gt;api&#45;handling/api&#45;handler&#45;exports.js -->
<g id="edge6" class="edge">
<title>driver.js&#45;&gt;api&#45;handling/api&#45;handler&#45;exports.js</title>
<path fill="none" stroke="#757575" d="M128.44,-376.25C132.78,-452.54 157.43,-857.11 194,-896.88 313.99,-1027.32 407.64,-975.88 584.88,-975.88 584.88,-975.88 584.88,-975.88 2010.5,-975.88 2254.17,-975.88 2493.44,-755.38 2561.87,-686.91"/>
<polygon fill="#757575" stroke="#757575" points="2564.09,-689.64 2568.63,-680.06 2559.11,-684.72 2564.09,-689.64"/>
</g>
<!-- driver.js&#45;&gt;config.js -->
<g id="edge7" class="edge">
<title>driver.js&#45;&gt;config.js</title>
<path fill="none" stroke="#757575" d="M129.23,-351.76C134.96,-307.02 157.22,-152.08 194,-121.88 261.3,-66.61 497.79,-93.88 584.88,-93.88 584.88,-93.88 584.88,-93.88 2296.12,-93.88 2478.49,-93.88 2540.88,-64.88 2702.75,-148.88 2759.35,-178.25 2804.77,-240.85 2826.04,-274.09"/>
<polygon fill="#757575" stroke="#757575" points="2823.01,-275.85 2831.27,-282.48 2828.95,-272.15 2823.01,-275.85"/>
</g>
<!-- driver.js&#45;&gt;log&#45;handling/logger.js -->
<g id="edge11" class="edge">
<title>driver.js&#45;&gt;log&#45;handling/logger.js</title>
<path fill="none" stroke="#757575" d="M158.41,-361.63C364.27,-346.79 1541.25,-266.01 1675,-347.88 1692.53,-358.6 1748.72,-482.22 1771.76,-534.14"/>
<polygon fill="#757575" stroke="#757575" points="1768.53,-535.49 1775.77,-543.22 1774.93,-532.66 1768.53,-535.49"/>
</g>
<!-- fsm.js -->
<g id="node10" class="node">
<title>fsm.js</title>
<path fill="none" stroke="#cfffac" d="M328.33,-65.75C328.33,-65.75 290.17,-65.75 290.17,-65.75 286.21,-65.75 282.25,-61.79 282.25,-57.83 282.25,-57.83 282.25,-49.92 282.25,-49.92 282.25,-45.96 286.21,-42 290.17,-42 290.17,-42 328.33,-42 328.33,-42 332.29,-42 336.25,-45.96 336.25,-49.92 336.25,-49.92 336.25,-57.83 336.25,-57.83 336.25,-61.79 332.29,-65.75 328.33,-65.75"/>
<text xml:space="preserve" text-anchor="middle" x="309.25" y="-48.45" font-family="Arial" font-size="14.00" fill="#cfffac">fsm.js</text>
</g>
<!-- driver.js&#45;&gt;fsm.js -->
<g id="edge8" class="edge">
<title>driver.js&#45;&gt;fsm.js</title>
<path fill="none" stroke="#757575" d="M128.9,-351.61C133.78,-302.31 154.33,-119.33 194,-79.88 213.92,-60.06 245.61,-54.06 270.56,-52.73"/>
<polygon fill="#757575" stroke="#757575" points="270.42,-56.24 280.32,-52.46 270.23,-49.24 270.42,-56.24"/>
</g>
<!-- listening&#45;handling/listeners.js -->
<g id="node11" class="node">
<title>listening&#45;handling/listeners.js</title>
<path fill="none" stroke="#c6c5fe" d="M395.58,-817.75C395.58,-817.75 222.92,-817.75 222.92,-817.75 218.96,-817.75 215,-813.79 215,-809.83 215,-809.83 215,-801.92 215,-801.92 215,-797.96 218.96,-794 222.92,-794 222.92,-794 395.58,-794 395.58,-794 399.54,-794 403.5,-797.96 403.5,-801.92 403.5,-801.92 403.5,-809.83 403.5,-809.83 403.5,-813.79 399.54,-817.75 395.58,-817.75"/>
<text xml:space="preserve" text-anchor="middle" x="309.25" y="-800.45" font-family="Arial" font-size="14.00" fill="#c6c5fe">listening&#45;handling/listeners.js</text>
</g>
<!-- driver.js&#45;&gt;listening&#45;handling/listeners.js -->
<g id="edge9" class="edge">
<title>driver.js&#45;&gt;listening&#45;handling/listeners.js</title>
<path fill="none" stroke="#757575" d="M128.19,-376.06C130.58,-436.15 143.87,-700.39 194,-761.88 204.1,-774.26 218.11,-783.16 232.87,-789.56"/>
<polygon fill="#757575" stroke="#757575" points="231.18,-792.65 241.76,-793.05 233.74,-786.14 231.18,-792.65"/>
</g>
<!-- listening&#45;handling/ordernum&#45;entry.js -->
<g id="node12" class="node">
<title>listening&#45;handling/ordernum&#45;entry.js</title>
<path fill="none" stroke="#c6c5fe" d="M416.58,-23.75C416.58,-23.75 201.92,-23.75 201.92,-23.75 197.96,-23.75 194,-19.79 194,-15.83 194,-15.83 194,-7.92 194,-7.92 194,-3.96 197.96,0 201.92,0 201.92,0 416.58,0 416.58,0 420.54,0 424.5,-3.96 424.5,-7.92 424.5,-7.92 424.5,-15.83 424.5,-15.83 424.5,-19.79 420.54,-23.75 416.58,-23.75"/>
<text xml:space="preserve" text-anchor="middle" x="309.25" y="-6.45" font-family="Arial" font-size="14.00" fill="#c6c5fe">listening&#45;handling/ordernum&#45;entry.js</text>
</g>
<!-- driver.js&#45;&gt;listening&#45;handling/ordernum&#45;entry.js -->
<g id="edge10" class="edge">
<title>driver.js&#45;&gt;listening&#45;handling/ordernum&#45;entry.js</title>
<path fill="none" stroke="#757575" d="M128.4,-351.81C131.58,-297.81 147.22,-78.92 194,-32.88 194.63,-32.25 195.28,-31.64 195.94,-31.05"/>
<polygon fill="#757575" stroke="#757575" points="197.99,-33.88 203.86,-25.06 193.77,-28.3 197.99,-33.88"/>
</g>
<!-- peripherals&#45;handling/camera/camera.js -->
<g id="node13" class="node">
<title>peripherals&#45;handling/camera/camera.js</title>
<path fill="none" stroke="#c6c5fe" d="M703.33,-493.75C703.33,-493.75 468.42,-493.75 468.42,-493.75 464.46,-493.75 460.5,-489.79 460.5,-485.83 460.5,-485.83 460.5,-477.92 460.5,-477.92 460.5,-473.96 464.46,-470 468.42,-470 468.42,-470 703.33,-470 703.33,-470 707.29,-470 711.25,-473.96 711.25,-477.92 711.25,-477.92 711.25,-485.83 711.25,-485.83 711.25,-489.79 707.29,-493.75 703.33,-493.75"/>
<text xml:space="preserve" text-anchor="middle" x="585.88" y="-476.45" font-family="Arial" font-size="14.00" fill="#c6c5fe">peripherals&#45;handling/camera/camera.js</text>
</g>
<!-- driver.js&#45;&gt;peripherals&#45;handling/camera/camera.js -->
<g id="edge12" class="edge">
<title>driver.js&#45;&gt;peripherals&#45;handling/camera/camera.js</title>
<path fill="none" stroke="#757575" d="M158.45,-371.8C233.63,-391.21 427.92,-441.36 526.16,-466.72"/>
<polygon fill="#757575" stroke="#757575" points="525.05,-470.05 535.61,-469.16 526.8,-463.27 525.05,-470.05"/>
</g>
<!-- session&#45;handling/idb&#45;photos.js -->
<g id="node14" class="node">
<title>session&#45;handling/idb&#45;photos.js</title>
<path fill="none" stroke="#ff6c60" d="M2673.08,-576.75C2673.08,-576.75 2491.42,-576.75 2491.42,-576.75 2487.46,-576.75 2483.5,-572.79 2483.5,-568.83 2483.5,-568.83 2483.5,-560.92 2483.5,-560.92 2483.5,-556.96 2487.46,-553 2491.42,-553 2491.42,-553 2673.08,-553 2673.08,-553 2677.04,-553 2681,-556.96 2681,-560.92 2681,-560.92 2681,-568.83 2681,-568.83 2681,-572.79 2677.04,-576.75 2673.08,-576.75"/>
<text xml:space="preserve" text-anchor="middle" x="2582.25" y="-559.45" font-family="Arial" font-size="14.00" fill="#ff6c60">session&#45;handling/idb&#45;photos.js</text>
</g>
<!-- driver.js&#45;&gt;session&#45;handling/idb&#45;photos.js -->
<g id="edge13" class="edge">
<title>driver.js&#45;&gt;session&#45;handling/idb&#45;photos.js</title>
<path fill="none" stroke="#757575" d="M134.17,-351.53C144.26,-333.53 165.62,-300.51 194,-284.88 298.68,-227.2 341.51,-260.14 460.5,-248.88 793.01,-217.38 876.88,-207.88 1210.88,-207.88 1210.88,-207.88 1210.88,-207.88 2010.5,-207.88 2265.49,-207.88 2500.39,-467.16 2564.25,-543.79"/>
<polygon fill="#757575" stroke="#757575" points="2561.47,-545.92 2570.53,-551.42 2566.87,-541.47 2561.47,-545.92"/>
</g>
<!-- driver.js&#45;&gt;session&#45;handling/session&#45;manager.js -->
<g id="edge14" class="edge">
<title>driver.js&#45;&gt;session&#45;handling/session&#45;manager.js</title>
<path fill="none" stroke="#757575" d="M130.02,-376.06C135.92,-404.75 154.09,-477.53 194,-522.88 326.42,-673.36 384.43,-747.88 584.88,-747.88 584.88,-747.88 584.88,-747.88 892.75,-747.88 1240.58,-747.88 1328.49,-754.19 1675,-723.88 1755.3,-716.85 1776.79,-719.29 1854.5,-697.88 1897.07,-686.15 1943.58,-665.68 1974.22,-651.04"/>
<polygon fill="#757575" stroke="#757575" points="1975.53,-654.3 1983,-646.79 1972.48,-648 1975.53,-654.3"/>
</g>
<!-- session&#45;handling/session&#45;sync&#45;exports.js -->
<g id="node16" class="node">
<title>session&#45;handling/session&#45;sync&#45;exports.js</title>
<path fill="none" stroke="#ff6c60" d="M2417.83,-645.75C2417.83,-645.75 2172.42,-645.75 2172.42,-645.75 2168.46,-645.75 2164.5,-641.79 2164.5,-637.83 2164.5,-637.83 2164.5,-629.92 2164.5,-629.92 2164.5,-625.96 2168.46,-622 2172.42,-622 2172.42,-622 2417.83,-622 2417.83,-622 2421.79,-622 2425.75,-625.96 2425.75,-629.92 2425.75,-629.92 2425.75,-637.83 2425.75,-637.83 2425.75,-641.79 2421.79,-645.75 2417.83,-645.75"/>
<text xml:space="preserve" text-anchor="middle" x="2295.12" y="-628.45" font-family="Arial" font-size="14.00" fill="#ff6c60">session&#45;handling/session&#45;sync&#45;exports.js</text>
</g>
<!-- driver.js&#45;&gt;session&#45;handling/session&#45;sync&#45;exports.js -->
<g id="edge15" class="edge">
<title>driver.js&#45;&gt;session&#45;handling/session&#45;sync&#45;exports.js</title>
<path fill="none" stroke="#757575" d="M127.76,-375.9C128.08,-441.62 132.83,-756.86 194,-826.88 312.82,-962.87 404.28,-937.88 584.88,-937.88 584.88,-937.88 584.88,-937.88 1532.25,-937.88 1802.83,-937.88 1894.28,-950.35 2128.5,-814.88 2198.6,-774.33 2255.93,-694.17 2280.79,-655.61"/>
<polygon fill="#757575" stroke="#757575" points="2283.74,-657.5 2286.12,-647.18 2277.82,-653.76 2283.74,-657.5"/>
</g>
<!-- ui/debug&#45;hud.js -->
<g id="node17" class="node">
<title>ui/debug&#45;hud.js</title>
<path fill="none" stroke="#c6c5fe" d="M355.46,-513.75C355.46,-513.75 263.04,-513.75 263.04,-513.75 259.08,-513.75 255.12,-509.79 255.12,-505.83 255.12,-505.83 255.12,-497.92 255.12,-497.92 255.12,-493.96 259.08,-490 263.04,-490 263.04,-490 355.46,-490 355.46,-490 359.42,-490 363.38,-493.96 363.38,-497.92 363.38,-497.92 363.38,-505.83 363.38,-505.83 363.38,-509.79 359.42,-513.75 355.46,-513.75"/>
<text xml:space="preserve" text-anchor="middle" x="309.25" y="-496.45" font-family="Arial" font-size="14.00" fill="#c6c5fe">ui/debug&#45;hud.js</text>
</g>
<!-- driver.js&#45;&gt;ui/debug&#45;hud.js -->
<g id="edge16" class="edge">
<title>driver.js&#45;&gt;ui/debug&#45;hud.js</title>
<path fill="none" stroke="#757575" d="M133.6,-376C143.5,-395.37 165.34,-433.41 194,-455.88 210.54,-468.84 231.21,-478.62 250.41,-485.77"/>
<polygon fill="#757575" stroke="#757575" points="249.17,-489.04 259.77,-489.06 251.5,-482.44 249.17,-489.04"/>
</g>
<!-- ui/hud&#45;manager.js -->
<g id="node18" class="node">
<title>ui/hud&#45;manager.js</title>
<path fill="none" stroke="#c6c5fe" d="M363.33,-317.75C363.33,-317.75 255.17,-317.75 255.17,-317.75 251.21,-317.75 247.25,-313.79 247.25,-309.83 247.25,-309.83 247.25,-301.92 247.25,-301.92 247.25,-297.96 251.21,-294 255.17,-294 255.17,-294 363.33,-294 363.33,-294 367.29,-294 371.25,-297.96 371.25,-301.92 371.25,-301.92 371.25,-309.83 371.25,-309.83 371.25,-313.79 367.29,-317.75 363.33,-317.75"/>
<text xml:space="preserve" text-anchor="middle" x="309.25" y="-300.45" font-family="Arial" font-size="14.00" fill="#c6c5fe">ui/hud&#45;manager.js</text>
</g>
<!-- driver.js&#45;&gt;ui/hud&#45;manager.js -->
<g id="edge17" class="edge">
<title>driver.js&#45;&gt;ui/hud&#45;manager.js</title>
<path fill="none" stroke="#757575" d="M158.37,-354.04C186.02,-345.15 227.19,-331.92 259.39,-321.58"/>
<polygon fill="#757575" stroke="#757575" points="260.04,-325.04 268.49,-318.65 257.9,-318.38 260.04,-325.04"/>
</g>
<!-- ui/ux&#45;elements.js -->
<g id="node19" class="node">
<title>ui/ux&#45;elements.js</title>
<path fill="none" stroke="#cfffac" d="M2633.33,-181.75C2633.33,-181.75 2531.17,-181.75 2531.17,-181.75 2527.21,-181.75 2523.25,-177.79 2523.25,-173.83 2523.25,-173.83 2523.25,-165.92 2523.25,-165.92 2523.25,-161.96 2527.21,-158 2531.17,-158 2531.17,-158 2633.33,-158 2633.33,-158 2637.29,-158 2641.25,-161.96 2641.25,-165.92 2641.25,-165.92 2641.25,-173.83 2641.25,-173.83 2641.25,-177.79 2637.29,-181.75 2633.33,-181.75"/>
<text xml:space="preserve" text-anchor="middle" x="2582.25" y="-164.45" font-family="Arial" font-size="14.00" fill="#cfffac">ui/ux&#45;elements.js</text>
</g>
<!-- driver.js&#45;&gt;ui/ux&#45;elements.js -->
<g id="edge18" class="edge">
<title>driver.js&#45;&gt;ui/ux&#45;elements.js</title>
<path fill="none" stroke="#757575" d="M127.44,-351.67C127.24,-315.49 132.13,-208.31 194,-159.88 262.57,-106.2 497.79,-131.88 584.88,-131.88 584.88,-131.88 584.88,-131.88 2010.5,-131.88 2191.59,-131.88 2404.3,-151.16 2511.69,-162.25"/>
<polygon fill="#757575" stroke="#757575" points="2511.18,-165.72 2521.49,-163.27 2511.91,-158.75 2511.18,-165.72"/>
</g>
<!-- listening&#45;handling/listeners.js&#45;&gt;log&#45;handling/logger.js -->
<g id="edge19" class="edge">
<title>listening&#45;handling/listeners.js&#45;&gt;log&#45;handling/logger.js</title>
<path fill="none" stroke="#757575" d="M403.85,-795.79C485.14,-787 605.99,-773.8 711.25,-761.88 920.14,-738.2 1671.94,-650.22 1675,-648.88 1711.84,-632.68 1745.42,-599.31 1764.71,-577.53"/>
<polygon fill="#757575" stroke="#757575" points="1767.2,-579.99 1771.08,-570.13 1761.9,-575.42 1767.2,-579.99"/>
</g>
<!-- listening&#45;handling/listeners.js&#45;&gt;peripherals&#45;handling/camera/camera.js -->
<g id="edge20" class="edge">
<title>listening&#45;handling/listeners.js&#45;&gt;peripherals&#45;handling/camera/camera.js</title>
<path fill="none" stroke="#757575" d="M314.17,-793.62C327.85,-752.59 377.22,-618.3 460.5,-540.88 481.08,-521.74 509,-507.73 533.17,-498.18"/>
<polygon fill="#757575" stroke="#757575" points="534.09,-501.58 542.2,-494.77 531.61,-495.03 534.09,-501.58"/>
</g>
<!-- listening&#45;handling/listeners.js&#45;&gt;session&#45;handling/session&#45;manager.js -->
<g id="edge21" class="edge">
<title>listening&#45;handling/listeners.js&#45;&gt;session&#45;handling/session&#45;manager.js</title>
<path fill="none" stroke="#757575" d="M403.98,-810.57C518.71,-815.9 718.96,-823.88 890.75,-823.88 890.75,-823.88 890.75,-823.88 1532.25,-823.88 1675.87,-823.88 1725.09,-862.16 1854.5,-799.88 1921.23,-767.75 1973.15,-693 1995.92,-655.77"/>
<polygon fill="#757575" stroke="#757575" points="1998.9,-657.59 2001.02,-647.21 1992.89,-654.01 1998.9,-657.59"/>
</g>
<!-- listening&#45;handling/listeners.js&#45;&gt;session&#45;handling/session&#45;sync&#45;exports.js -->
<g id="edge22" class="edge">
<title>listening&#45;handling/listeners.js&#45;&gt;session&#45;handling/session&#45;sync&#45;exports.js</title>
<path fill="none" stroke="#757575" d="M376.26,-818.22C402.41,-822.75 432.8,-827.58 460.5,-830.88 650.88,-853.52 699.03,-861.88 890.75,-861.88 890.75,-861.88 890.75,-861.88 1783.75,-861.88 1987.66,-861.88 2200.67,-708.28 2270.47,-653.22"/>
<polygon fill="#757575" stroke="#757575" points="2272.53,-656.05 2278.17,-647.08 2268.17,-650.58 2272.53,-656.05"/>
</g>
<!-- session&#45;handling/session&#45;sync&#45;utils.js -->
<g id="node20" class="node">
<title>session&#45;handling/session&#45;sync&#45;utils.js</title>
<path fill="none" stroke="#c6c5fe" d="M2694.83,-636.75C2694.83,-636.75 2469.67,-636.75 2469.67,-636.75 2465.71,-636.75 2461.75,-632.79 2461.75,-628.83 2461.75,-628.83 2461.75,-620.92 2461.75,-620.92 2461.75,-616.96 2465.71,-613 2469.67,-613 2469.67,-613 2694.83,-613 2694.83,-613 2698.79,-613 2702.75,-616.96 2702.75,-620.92 2702.75,-620.92 2702.75,-628.83 2702.75,-628.83 2702.75,-632.79 2698.79,-636.75 2694.83,-636.75"/>
<text xml:space="preserve" text-anchor="middle" x="2582.25" y="-619.45" font-family="Arial" font-size="14.00" fill="#c6c5fe">session&#45;handling/session&#45;sync&#45;utils.js</text>
</g>
<!-- listening&#45;handling/listeners.js&#45;&gt;session&#45;handling/session&#45;sync&#45;utils.js -->
<g id="edge23" class="edge">
<title>listening&#45;handling/listeners.js&#45;&gt;session&#45;handling/session&#45;sync&#45;utils.js</title>
<path fill="none" stroke="#757575" d="M339.31,-818.23C369.15,-830.38 417.22,-848.41 460.5,-857.88 648.2,-898.91 698.62,-899.88 890.75,-899.88 890.75,-899.88 890.75,-899.88 1532.25,-899.88 1799.93,-899.88 1876.52,-905.2 2128.5,-814.88 2284.83,-758.84 2304.2,-698.37 2461.75,-645.88 2468.37,-643.67 2475.28,-641.68 2482.3,-639.89"/>
<polygon fill="#757575" stroke="#757575" points="2482.99,-643.33 2491.9,-637.6 2481.36,-636.52 2482.99,-643.33"/>
</g>
<!-- peripherals&#45;handling/barcode.js -->
<g id="node21" class="node">
<title>peripherals&#45;handling/barcode.js</title>
<path fill="none" stroke="#cfffac" d="M680.08,-23.75C680.08,-23.75 491.67,-23.75 491.67,-23.75 487.71,-23.75 483.75,-19.79 483.75,-15.83 483.75,-15.83 483.75,-7.92 483.75,-7.92 483.75,-3.96 487.71,0 491.67,0 491.67,0 680.08,0 680.08,0 684.04,0 688,-3.96 688,-7.92 688,-7.92 688,-15.83 688,-15.83 688,-19.79 684.04,-23.75 680.08,-23.75"/>
<text xml:space="preserve" text-anchor="middle" x="585.88" y="-6.45" font-family="Arial" font-size="14.00" fill="#cfffac">peripherals&#45;handling/barcode.js</text>
</g>
<!-- listening&#45;handling/ordernum&#45;entry.js&#45;&gt;peripherals&#45;handling/barcode.js -->
<g id="edge24" class="edge">
<title>listening&#45;handling/ordernum&#45;entry.js&#45;&gt;peripherals&#45;handling/barcode.js</title>
<path fill="none" stroke="#757575" d="M424.73,-11.88C440.36,-11.88 456.4,-11.88 472,-11.88"/>
<polygon fill="#757575" stroke="#757575" points="471.76,-15.38 481.76,-11.88 471.76,-8.38 471.76,-15.38"/>
</g>
<!-- peripherals&#45;handling/camera/camera.js&#45;&gt;log&#45;handling/logger.js -->
<g id="edge34" class="edge">
<title>peripherals&#45;handling/camera/camera.js&#45;&gt;log&#45;handling/logger.js</title>
<path fill="none" stroke="#757575" d="M680.14,-494.21C702.15,-497.09 725.52,-500.12 747.25,-502.88 891.62,-521.21 927.28,-530.06 1072.25,-542.88 1212.02,-555.23 1247.24,-556.1 1387.5,-559.88 1515.23,-563.32 1547.23,-561.67 1675,-559.88 1682.81,-559.77 1690.95,-559.61 1699.08,-559.43"/>
<polygon fill="#757575" stroke="#757575" points="1699.13,-562.93 1709.04,-559.19 1698.96,-555.93 1699.13,-562.93"/>
</g>
<!-- peripherals&#45;handling/camera/camera.js&#45;&gt;session&#45;handling/session&#45;manager.js -->
<g id="edge37" class="edge">
<title>peripherals&#45;handling/camera/camera.js&#45;&gt;session&#45;handling/session&#45;manager.js</title>
<path fill="none" stroke="#757575" d="M681.86,-494.16C692.02,-497.02 702.01,-500.54 711.25,-504.88 730.1,-513.72 728.01,-526.89 747.25,-534.88 1144.49,-699.74 1671.98,-670.31 1898.03,-647.37"/>
<polygon fill="#757575" stroke="#757575" points="1898.12,-650.88 1907.71,-646.37 1897.4,-643.91 1898.12,-650.88"/>
</g>
<!-- peripherals&#45;handling/camera/cam&#45;manager.js -->
<g id="node25" class="node">
<title>peripherals&#45;handling/camera/cam&#45;manager.js</title>
<path fill="none" stroke="#c6c5fe" d="M1028.33,-493.75C1028.33,-493.75 755.17,-493.75 755.17,-493.75 751.21,-493.75 747.25,-489.79 747.25,-485.83 747.25,-485.83 747.25,-477.92 747.25,-477.92 747.25,-473.96 751.21,-470 755.17,-470 755.17,-470 1028.33,-470 1028.33,-470 1032.29,-470 1036.25,-473.96 1036.25,-477.92 1036.25,-477.92 1036.25,-485.83 1036.25,-485.83 1036.25,-489.79 1032.29,-493.75 1028.33,-493.75"/>
<text xml:space="preserve" text-anchor="middle" x="891.75" y="-476.45" font-family="Arial" font-size="14.00" fill="#c6c5fe">peripherals&#45;handling/camera/cam&#45;manager.js</text>
</g>
<!-- peripherals&#45;handling/camera/camera.js&#45;&gt;peripherals&#45;handling/camera/cam&#45;manager.js -->
<g id="edge35" class="edge">
<title>peripherals&#45;handling/camera/camera.js&#45;&gt;peripherals&#45;handling/camera/cam&#45;manager.js</title>
<path fill="none" stroke="#757575" d="M711.35,-481.88C719.37,-481.88 727.5,-481.88 735.64,-481.88"/>
<polygon fill="#757575" stroke="#757575" points="735.63,-485.38 745.63,-481.88 735.63,-478.38 735.63,-485.38"/>
</g>
<!-- peripherals&#45;handling/camera/camera&#45;utils.js -->
<g id="node26" class="node">
<title>peripherals&#45;handling/camera/camera&#45;utils.js</title>
<path fill="none" stroke="#c6c5fe" d="M1343.58,-415.75C1343.58,-415.75 1080.17,-415.75 1080.17,-415.75 1076.21,-415.75 1072.25,-411.79 1072.25,-407.83 1072.25,-407.83 1072.25,-399.92 1072.25,-399.92 1072.25,-395.96 1076.21,-392 1080.17,-392 1080.17,-392 1343.58,-392 1343.58,-392 1347.54,-392 1351.5,-395.96 1351.5,-399.92 1351.5,-399.92 1351.5,-407.83 1351.5,-407.83 1351.5,-411.79 1347.54,-415.75 1343.58,-415.75"/>
<text xml:space="preserve" text-anchor="middle" x="1211.88" y="-398.45" font-family="Arial" font-size="14.00" fill="#c6c5fe">peripherals&#45;handling/camera/camera&#45;utils.js</text>
</g>
<!-- peripherals&#45;handling/camera/camera.js&#45;&gt;peripherals&#45;handling/camera/camera&#45;utils.js -->
<g id="edge36" class="edge">
<title>peripherals&#45;handling/camera/camera.js&#45;&gt;peripherals&#45;handling/camera/camera&#45;utils.js</title>
<path fill="none" stroke="#757575" d="M680.14,-469.54C702.15,-466.66 725.52,-463.63 747.25,-460.88 866.69,-445.71 1003.53,-428.97 1097.41,-417.57"/>
<polygon fill="#757575" stroke="#757575" points="1097.63,-421.07 1107.14,-416.39 1096.79,-414.12 1097.63,-421.07"/>
</g>
<!-- session&#45;handling/idb&#45;photos.js&#45;&gt;log&#45;handling/logger.js -->
<g id="edge41" class="edge">
<title>session&#45;handling/idb&#45;photos.js&#45;&gt;log&#45;handling/logger.js</title>
<path fill="none" stroke="#757575" d="M2483.16,-563.89C2324.42,-562.3 2014.12,-559.19 1866.11,-557.7"/>
<polygon fill="#757575" stroke="#757575" points="1866.42,-554.2 1856.39,-557.6 1866.35,-561.2 1866.42,-554.2"/>
</g>
<!-- session&#45;handling/session&#45;manager.js&#45;&gt;log&#45;handling/logger.js -->
<g id="edge42" class="edge">
<title>session&#45;handling/session&#45;manager.js&#45;&gt;log&#45;handling/logger.js</title>
<path fill="none" stroke="#757575" d="M1905.15,-621.54C1900.17,-620.07 1895.26,-618.51 1890.5,-616.88 1859.62,-606.25 1825.92,-589.16 1804.82,-575.57"/>
<polygon fill="#757575" stroke="#757575" points="1807.02,-572.83 1796.79,-570.07 1803.07,-578.61 1807.02,-572.83"/>
</g>
<!-- session&#45;handling/session&#45;manager.js&#45;&gt;session&#45;handling/idb&#45;photos.js -->
<g id="edge43" class="edge">
<title>session&#45;handling/session&#45;manager.js&#45;&gt;session&#45;handling/idb&#45;photos.js</title>
<path fill="none" stroke="#757575" d="M2098.82,-621.51C2120.3,-618.59 2143.22,-615.55 2164.5,-612.88 2268.65,-599.78 2387.62,-586.21 2471.71,-576.86"/>
<polygon fill="#757575" stroke="#757575" points="2472.03,-580.35 2481.58,-575.76 2471.25,-573.39 2472.03,-580.35"/>
</g>
<!-- session&#45;handling/session&#45;manager.js&#45;&gt;session&#45;handling/session&#45;sync&#45;exports.js -->
<g id="edge44" class="edge">
<title>session&#45;handling/session&#45;manager.js&#45;&gt;session&#45;handling/session&#45;sync&#45;exports.js</title>
<path fill="none" stroke="#757575" d="M2128.73,-633.88C2136.68,-633.88 2144.74,-633.88 2152.8,-633.88"/>
<polygon fill="#757575" stroke="#757575" points="2152.66,-637.38 2162.66,-633.88 2152.66,-630.38 2152.66,-637.38"/>
</g>
<!-- session&#45;handling/session&#45;sync&#45;exports.js&#45;&gt;api&#45;handling/api&#45;handler&#45;exports.js -->
<g id="edge45" class="edge">
<title>session&#45;handling/session&#45;sync&#45;exports.js&#45;&gt;api&#45;handling/api&#45;handler&#45;exports.js</title>
<path fill="none" stroke="#757575" d="M2402.7,-646.21C2422.36,-648.49 2443,-650.87 2462.98,-653.19"/>
<polygon fill="#757575" stroke="#757575" points="2462.49,-656.65 2472.83,-654.33 2463.29,-649.7 2462.49,-656.65"/>
</g>
<!-- session&#45;handling/session&#45;sync&#45;exports.js&#45;&gt;log&#45;handling/logger.js -->
<g id="edge46" class="edge">
<title>session&#45;handling/session&#45;sync&#45;exports.js&#45;&gt;log&#45;handling/logger.js</title>
<path fill="none" stroke="#757575" d="M2212.47,-621.56C2117.52,-607.23 1961.64,-583.71 1866.3,-569.33"/>
<polygon fill="#757575" stroke="#757575" points="1866.89,-565.88 1856.48,-567.85 1865.85,-572.8 1866.89,-565.88"/>
</g>
<!-- session&#45;handling/session&#45;sync&#45;exports.js&#45;&gt;session&#45;handling/idb&#45;photos.js -->
<g id="edge47" class="edge">
<title>session&#45;handling/session&#45;sync&#45;exports.js&#45;&gt;session&#45;handling/idb&#45;photos.js</title>
<path fill="none" stroke="#757575" d="M2362.27,-621.56C2382.69,-617.5 2405.21,-612.77 2425.75,-607.88 2460.45,-599.61 2499.11,-588.92 2529.2,-580.27"/>
<polygon fill="#757575" stroke="#757575" points="2529.79,-583.75 2538.43,-577.61 2527.85,-577.02 2529.79,-583.75"/>
</g>
<!-- session&#45;handling/session&#45;sync&#45;exports.js&#45;&gt;ui/ux&#45;elements.js -->
<g id="edge49" class="edge">
<title>session&#45;handling/session&#45;sync&#45;exports.js&#45;&gt;ui/ux&#45;elements.js</title>
<path fill="none" stroke="#757575" d="M2303.46,-621.94C2341.58,-559.9 2517.28,-273.98 2567.69,-191.94"/>
<polygon fill="#757575" stroke="#757575" points="2570.66,-193.8 2572.91,-183.45 2564.69,-190.14 2570.66,-193.8"/>
</g>
<!-- session&#45;handling/session&#45;sync&#45;exports.js&#45;&gt;session&#45;handling/session&#45;sync&#45;utils.js -->
<g id="edge48" class="edge">
<title>session&#45;handling/session&#45;sync&#45;exports.js&#45;&gt;session&#45;handling/session&#45;sync&#45;utils.js</title>
<path fill="none" stroke="#757575" d="M2426.17,-629.77C2434.16,-629.52 2442.2,-629.26 2450.19,-629.01"/>
<polygon fill="#757575" stroke="#757575" points="2450.04,-632.52 2459.93,-628.7 2449.82,-625.52 2450.04,-632.52"/>
</g>
<!-- ui/debug&#45;hud.js&#45;&gt;debug/memory&#45;monitor.js -->
<g id="edge51" class="edge">
<title>ui/debug&#45;hud.js&#45;&gt;debug/memory&#45;monitor.js</title>
<path fill="none" stroke="#757575" d="M363.53,-503.89C466.36,-508.24 684.47,-519.84 711.25,-540.88 749.39,-570.83 710.38,-612.38 747.25,-643.88 760.8,-655.45 777.75,-662.63 795.2,-666.95"/>
<polygon fill="#757575" stroke="#757575" points="794.12,-670.29 804.63,-668.96 795.58,-663.45 794.12,-670.29"/>
</g>
<!-- ui/debug&#45;hud.js&#45;&gt;debug/performance&#45;monitor.js -->
<g id="edge52" class="edge">
<title>ui/debug&#45;hud.js&#45;&gt;debug/performance&#45;monitor.js</title>
<path fill="none" stroke="#757575" d="M363.75,-514.21C392.42,-520.76 428.36,-528.88 460.5,-535.88 477.65,-539.61 496.16,-543.53 513.52,-547.17"/>
<polygon fill="#757575" stroke="#757575" points="512.75,-550.58 523.25,-549.2 514.18,-543.73 512.75,-550.58"/>
</g>
<!-- ui/debug&#45;hud.js&#45;&gt;peripherals&#45;handling/camera/camera.js -->
<g id="edge54" class="edge">
<title>ui/debug&#45;hud.js&#45;&gt;peripherals&#45;handling/camera/camera.js</title>
<path fill="none" stroke="#757575" d="M363.85,-497.97C388.39,-496.18 418.69,-493.98 448.91,-491.78"/>
<polygon fill="#757575" stroke="#757575" points="448.8,-495.29 458.52,-491.08 448.29,-488.31 448.8,-495.29"/>
</g>
<!-- ui/debug&#45;hud.js&#45;&gt;session&#45;handling/session&#45;manager.js -->
<g id="edge55" class="edge">
<title>ui/debug&#45;hud.js&#45;&gt;session&#45;handling/session&#45;manager.js</title>
<path fill="none" stroke="#757575" d="M328.91,-513.96C399.33,-558.35 656.83,-709.88 890.75,-709.88 890.75,-709.88 890.75,-709.88 1532.25,-709.88 1685.41,-709.88 1862.86,-671.07 1951.68,-648.92"/>
<polygon fill="#757575" stroke="#757575" points="1952.27,-652.38 1961.11,-646.54 1950.56,-645.59 1952.27,-652.38"/>
</g>
<!-- ui/debug&#45;hud.js&#45;&gt;peripherals&#45;handling/camera/camera&#45;utils.js -->
<g id="edge53" class="edge">
<title>ui/debug&#45;hud.js&#45;&gt;peripherals&#45;handling/camera/camera&#45;utils.js</title>
<path fill="none" stroke="#757575" d="M350.09,-489.51C380.18,-480.53 422.62,-468.65 460.5,-460.88 665.57,-418.77 907.92,-407.04 1060.52,-404.16"/>
<polygon fill="#757575" stroke="#757575" points="1060.36,-407.66 1070.3,-403.99 1060.24,-400.67 1060.36,-407.66"/>
</g>
<!-- ui/hud&#45;manager.js&#45;&gt;log&#45;handling/logger.js -->
<g id="edge56" class="edge">
<title>ui/hud&#45;manager.js&#45;&gt;log&#45;handling/logger.js</title>
<path fill="none" stroke="#757575" d="M371.72,-306.91C622.59,-311.57 1561.03,-333.27 1675,-398.88 1728.07,-429.43 1760.18,-498.32 1773.91,-534.2"/>
<polygon fill="#757575" stroke="#757575" points="1770.48,-534.99 1777.21,-543.17 1777.05,-532.58 1770.48,-534.99"/>
</g>
<!-- ui/hud&#45;manager.js&#45;&gt;peripherals&#45;handling/camera/camera.js -->
<g id="edge57" class="edge">
<title>ui/hud&#45;manager.js&#45;&gt;peripherals&#45;handling/camera/camera.js</title>
<path fill="none" stroke="#757575" d="M329.13,-317.97C376.45,-348.3 500.39,-427.73 556.52,-463.7"/>
<polygon fill="#757575" stroke="#757575" points="554.28,-466.43 564.59,-468.88 558.06,-460.53 554.28,-466.43"/>
</g>
<!-- ui/hud&#45;manager.js&#45;&gt;session&#45;handling/session&#45;manager.js -->
<g id="edge58" class="edge">
<title>ui/hud&#45;manager.js&#45;&gt;session&#45;handling/session&#45;manager.js</title>
<path fill="none" stroke="#757575" d="M371.66,-302.72C477.58,-297.56 701.44,-287.88 890.75,-287.88 890.75,-287.88 890.75,-287.88 1212.88,-287.88 1315.68,-287.88 1580.68,-268 1675,-308.88 1830.32,-376.19 1954.67,-550.81 1994.8,-612.17"/>
<polygon fill="#757575" stroke="#757575" points="1991.73,-613.86 2000.09,-620.37 1997.61,-610.07 1991.73,-613.86"/>
</g>
<!-- ui/hud&#45;manager.js&#45;&gt;ui/ux&#45;elements.js -->
<g id="edge60" class="edge">
<title>ui/hud&#45;manager.js&#45;&gt;ui/ux&#45;elements.js</title>
<path fill="none" stroke="#757575" d="M336.47,-293.55C365.95,-280.26 415.58,-259.57 460.5,-248.88 786.72,-171.2 875.53,-169.88 1210.88,-169.88 1210.88,-169.88 1210.88,-169.88 2010.5,-169.88 2191.19,-169.88 2404.06,-169.88 2511.59,-169.88"/>
<polygon fill="#757575" stroke="#757575" points="2511.4,-173.38 2521.4,-169.88 2511.4,-166.38 2511.4,-173.38"/>
</g>
<!-- ui/qc&#45;loader.js -->
<g id="node29" class="node">
<title>ui/qc&#45;loader.js</title>
<path fill="none" stroke="#c6c5fe" d="M1572.96,-259.75C1572.96,-259.75 1489.54,-259.75 1489.54,-259.75 1485.58,-259.75 1481.62,-255.79 1481.62,-251.83 1481.62,-251.83 1481.62,-243.92 1481.62,-243.92 1481.62,-239.96 1485.58,-236 1489.54,-236 1489.54,-236 1572.96,-236 1572.96,-236 1576.92,-236 1580.88,-239.96 1580.88,-243.92 1580.88,-243.92 1580.88,-251.83 1580.88,-251.83 1580.88,-255.79 1576.92,-259.75 1572.96,-259.75"/>
<text xml:space="preserve" text-anchor="middle" x="1531.25" y="-242.45" font-family="Arial" font-size="14.00" fill="#c6c5fe">ui/qc&#45;loader.js</text>
</g>
<!-- ui/hud&#45;manager.js&#45;&gt;ui/qc&#45;loader.js -->
<g id="edge59" class="edge">
<title>ui/hud&#45;manager.js&#45;&gt;ui/qc&#45;loader.js</title>
<path fill="none" stroke="#757575" d="M357.25,-293.52C386.68,-286.37 425.54,-277.99 460.5,-273.88 842.71,-228.92 1306.82,-239.7 1470.02,-245.44"/>
<polygon fill="#757575" stroke="#757575" points="1469.61,-248.93 1479.73,-245.79 1469.86,-241.94 1469.61,-248.93"/>
</g>
<!-- session&#45;handling/session&#45;sync&#45;utils.js&#45;&gt;config.js -->
<g id="edge50" class="edge">
<title>session&#45;handling/session&#45;sync&#45;utils.js&#45;&gt;config.js</title>
<path fill="none" stroke="#757575" d="M2652.74,-612.56C2670.58,-606.77 2688.68,-598.3 2702.75,-585.88 2786.9,-511.57 2823.12,-374.23 2834.69,-319.39"/>
<polygon fill="#757575" stroke="#757575" points="2838.11,-320.12 2836.66,-309.63 2831.25,-318.74 2838.11,-320.12"/>
</g>
<!-- main.js -->
<g id="node22" class="node">
<title>main.js</title>
<path fill="none" stroke="#c6c5fe" d="M51.58,-375.75C51.58,-375.75 7.92,-375.75 7.92,-375.75 3.96,-375.75 0,-371.79 0,-367.83 0,-367.83 0,-359.92 0,-359.92 0,-355.96 3.96,-352 7.92,-352 7.92,-352 51.58,-352 51.58,-352 55.54,-352 59.5,-355.96 59.5,-359.92 59.5,-359.92 59.5,-367.83 59.5,-367.83 59.5,-371.79 55.54,-375.75 51.58,-375.75"/>
<text xml:space="preserve" text-anchor="middle" x="29.75" y="-358.45" font-family="Arial" font-size="14.00" fill="#c6c5fe">main.js</text>
</g>
<!-- main.js&#45;&gt;driver.js -->
<g id="edge26" class="edge">
<title>main.js&#45;&gt;driver.js</title>
<path fill="none" stroke="#757575" d="M59.77,-363.88C67.41,-363.88 75.81,-363.88 83.97,-363.88"/>
<polygon fill="#757575" stroke="#757575" points="83.75,-367.38 93.75,-363.88 83.75,-360.38 83.75,-367.38"/>
</g>
<!-- ocr&#45;archived/page&#45;detect.js -->
<g id="node23" class="node">
<title>ocr&#45;archived/page&#45;detect.js</title>
<path fill="none" stroke="#cfffac" d="M2921.58,-65.75C2921.58,-65.75 2758.67,-65.75 2758.67,-65.75 2754.71,-65.75 2750.75,-61.79 2750.75,-57.83 2750.75,-57.83 2750.75,-49.92 2750.75,-49.92 2750.75,-45.96 2754.71,-42 2758.67,-42 2758.67,-42 2921.58,-42 2921.58,-42 2925.54,-42 2929.5,-45.96 2929.5,-49.92 2929.5,-49.92 2929.5,-57.83 2929.5,-57.83 2929.5,-61.79 2925.54,-65.75 2921.58,-65.75"/>
<text xml:space="preserve" text-anchor="middle" x="2840.12" y="-48.45" font-family="Arial" font-size="14.00" fill="#cfffac">ocr&#45;archived/page&#45;detect.js</text>
</g>
<!-- ocr&#45;archived/tesseract.js -->
<g id="node24" class="node">
<title>ocr&#45;archived/tesseract.js</title>
<path fill="none" stroke="#c6c5fe" d="M2655.46,-65.75C2655.46,-65.75 2509.04,-65.75 2509.04,-65.75 2505.08,-65.75 2501.12,-61.79 2501.12,-57.83 2501.12,-57.83 2501.12,-49.92 2501.12,-49.92 2501.12,-45.96 2505.08,-42 2509.04,-42 2509.04,-42 2655.46,-42 2655.46,-42 2659.42,-42 2663.38,-45.96 2663.38,-49.92 2663.38,-49.92 2663.38,-57.83 2663.38,-57.83 2663.38,-61.79 2659.42,-65.75 2655.46,-65.75"/>
<text xml:space="preserve" text-anchor="middle" x="2582.25" y="-48.45" font-family="Arial" font-size="14.00" fill="#c6c5fe">ocr&#45;archived/tesseract.js</text>
</g>
<!-- ocr&#45;archived/tesseract.js&#45;&gt;config.js -->
<g id="edge27" class="edge">
<title>ocr&#45;archived/tesseract.js&#45;&gt;config.js</title>
<path fill="none" stroke="#757575" d="M2663.74,-62.21C2677.56,-66.13 2691.18,-71.78 2702.75,-79.88 2773.45,-129.38 2815.47,-228.44 2831.56,-273.11"/>
<polygon fill="#757575" stroke="#757575" points="2828.15,-273.99 2834.75,-282.28 2834.76,-271.68 2828.15,-273.99"/>
</g>
<!-- ocr&#45;archived/tesseract.js&#45;&gt;ocr&#45;archived/page&#45;detect.js -->
<g id="edge28" class="edge">
<title>ocr&#45;archived/tesseract.js&#45;&gt;ocr&#45;archived/page&#45;detect.js</title>
<path fill="none" stroke="#757575" d="M2663.86,-53.88C2687.74,-53.88 2714.18,-53.88 2739.14,-53.88"/>
<polygon fill="#757575" stroke="#757575" points="2738.97,-57.38 2748.97,-53.88 2738.97,-50.38 2738.97,-57.38"/>
</g>
<!-- peripherals&#45;handling/camera/cam&#45;manager.js&#45;&gt;config.js -->
<g id="edge29" class="edge">
<title>peripherals&#45;handling/camera/cam&#45;manager.js&#45;&gt;config.js</title>
<path fill="none" stroke="#757575" d="M992.42,-469.51C1265.43,-435.63 2005.32,-343.88 2008.5,-343.88 2008.5,-343.88 2008.5,-343.88 2296.12,-343.88 2482.67,-343.88 2703.86,-315.42 2795.76,-302.33"/>
<polygon fill="#757575" stroke="#757575" points="2796.18,-305.8 2805.58,-300.91 2795.19,-298.87 2796.18,-305.8"/>
</g>
<!-- peripherals&#45;handling/camera/cam&#45;manager.js&#45;&gt;log&#45;handling/logger.js -->
<g id="edge30" class="edge">
<title>peripherals&#45;handling/camera/cam&#45;manager.js&#45;&gt;log&#45;handling/logger.js</title>
<path fill="none" stroke="#757575" d="M1036.71,-476.28C1228.99,-470.24 1558.92,-465.3 1675,-496.88 1705.15,-505.08 1735.86,-523.63 1756.55,-537.95"/>
<polygon fill="#757575" stroke="#757575" points="1754.45,-540.75 1764.63,-543.7 1758.51,-535.05 1754.45,-540.75"/>
</g>
<!-- peripherals&#45;handling/camera/cam&#45;manager.js&#45;&gt;peripherals&#45;handling/camera/camera&#45;utils.js -->
<g id="edge31" class="edge">
<title>peripherals&#45;handling/camera/cam&#45;manager.js&#45;&gt;peripherals&#45;handling/camera/camera&#45;utils.js</title>
<path fill="none" stroke="#757575" d="M993.62,-469.5C1008.24,-466.03 1022.85,-461.58 1036.25,-455.88 1054.41,-448.15 1054.11,-437.66 1072.25,-429.88 1082.21,-425.6 1092.86,-422.03 1103.68,-419.04"/>
<polygon fill="#757575" stroke="#757575" points="1104.25,-422.51 1113.06,-416.62 1102.51,-415.73 1104.25,-422.51"/>
</g>
<!-- peripherals&#45;handling/camera/zoom&#45;init.js -->
<g id="node27" class="node">
<title>peripherals&#45;handling/camera/zoom&#45;init.js</title>
<path fill="none" stroke="#c6c5fe" d="M1334.21,-533.75C1334.21,-533.75 1089.54,-533.75 1089.54,-533.75 1085.58,-533.75 1081.62,-529.79 1081.62,-525.83 1081.62,-525.83 1081.62,-517.92 1081.62,-517.92 1081.62,-513.96 1085.58,-510 1089.54,-510 1089.54,-510 1334.21,-510 1334.21,-510 1338.17,-510 1342.12,-513.96 1342.12,-517.92 1342.12,-517.92 1342.12,-525.83 1342.12,-525.83 1342.12,-529.79 1338.17,-533.75 1334.21,-533.75"/>
<text xml:space="preserve" text-anchor="middle" x="1211.88" y="-516.45" font-family="Arial" font-size="14.00" fill="#c6c5fe">peripherals&#45;handling/camera/zoom&#45;init.js</text>
</g>
<!-- peripherals&#45;handling/camera/cam&#45;manager.js&#45;&gt;peripherals&#45;handling/camera/zoom&#45;init.js -->
<g id="edge32" class="edge">
<title>peripherals&#45;handling/camera/cam&#45;manager.js&#45;&gt;peripherals&#45;handling/camera/zoom&#45;init.js</title>
<path fill="none" stroke="#757575" d="M990.79,-494.2C1025.87,-498.61 1065.61,-503.61 1101.58,-508.13"/>
<polygon fill="#757575" stroke="#757575" points="1100.75,-511.56 1111.11,-509.33 1101.62,-504.61 1100.75,-511.56"/>
</g>
<!-- peripherals&#45;handling/camera/camera&#45;utils.js&#45;&gt;log&#45;handling/logger.js -->
<g id="edge33" class="edge">
<title>peripherals&#45;handling/camera/camera&#45;utils.js&#45;&gt;log&#45;handling/logger.js</title>
<path fill="none" stroke="#757575" d="M1351.76,-401.15C1446.63,-404.17 1573.1,-418.01 1675,-463.88 1711.87,-480.47 1745.44,-514.14 1764.72,-536.09"/>
<polygon fill="#757575" stroke="#757575" points="1761.93,-538.21 1771.09,-543.54 1767.25,-533.66 1761.93,-538.21"/>
</g>
<!-- peripherals&#45;handling/camera/zoom&#45;init.js&#45;&gt;log&#45;handling/logger.js -->
<g id="edge39" class="edge">
<title>peripherals&#45;handling/camera/zoom&#45;init.js&#45;&gt;log&#45;handling/logger.js</title>
<path fill="none" stroke="#757575" d="M1331.16,-534.22C1349.99,-535.95 1369.27,-537.57 1387.5,-538.88 1495.14,-546.57 1619.57,-551.61 1699.38,-554.35"/>
<polygon fill="#757575" stroke="#757575" points="1699.2,-557.84 1709.31,-554.68 1699.43,-550.85 1699.2,-557.84"/>
</g>
<!-- peripherals&#45;handling/camera/zoom&#45;handler.js -->
<g id="node28" class="node">
<title>peripherals&#45;handling/camera/zoom&#45;handler.js</title>
<path fill="none" stroke="#c6c5fe" d="M1667.08,-529.75C1667.08,-529.75 1395.42,-529.75 1395.42,-529.75 1391.46,-529.75 1387.5,-525.79 1387.5,-521.83 1387.5,-521.83 1387.5,-513.92 1387.5,-513.92 1387.5,-509.96 1391.46,-506 1395.42,-506 1395.42,-506 1667.08,-506 1667.08,-506 1671.04,-506 1675,-509.96 1675,-513.92 1675,-513.92 1675,-521.83 1675,-521.83 1675,-525.79 1671.04,-529.75 1667.08,-529.75"/>
<text xml:space="preserve" text-anchor="middle" x="1531.25" y="-512.45" font-family="Arial" font-size="14.00" fill="#c6c5fe">peripherals&#45;handling/camera/zoom&#45;handler.js</text>
</g>
<!-- peripherals&#45;handling/camera/zoom&#45;init.js&#45;&gt;peripherals&#45;handling/camera/zoom&#45;handler.js -->
<g id="edge40" class="edge">
<title>peripherals&#45;handling/camera/zoom&#45;init.js&#45;&gt;peripherals&#45;handling/camera/zoom&#45;handler.js</title>
<path fill="none" stroke="#757575" d="M1342.42,-520.24C1353.48,-520.1 1364.73,-519.96 1375.95,-519.82"/>
<polygon fill="#757575" stroke="#757575" points="1375.68,-523.32 1385.64,-519.7 1375.6,-516.32 1375.68,-523.32"/>
</g>
<!-- peripherals&#45;handling/camera/zoom&#45;handler.js&#45;&gt;log&#45;handling/logger.js -->
<g id="edge38" class="edge">
<title>peripherals&#45;handling/camera/zoom&#45;handler.js&#45;&gt;log&#45;handling/logger.js</title>
<path fill="none" stroke="#757575" d="M1611.19,-530.21C1639.3,-534.61 1671.01,-539.56 1699.39,-544"/>
<polygon fill="#757575" stroke="#757575" points="1698.59,-547.42 1709.01,-545.5 1699.67,-540.5 1698.59,-547.42"/>
</g>
<!-- ui/qc&#45;loader.js&#45;&gt;config.js -->
<g id="edge61" class="edge">
<title>ui/qc&#45;loader.js&#45;&gt;config.js</title>
<path fill="none" stroke="#757575" d="M1581.23,-251.97C1667.5,-258.83 1852.24,-271.88 2008.5,-271.88 2008.5,-271.88 2008.5,-271.88 2296.12,-271.88 2482.12,-271.88 2703.61,-286.1 2795.67,-292.65"/>
<polygon fill="#757575" stroke="#757575" points="2795.28,-296.13 2805.51,-293.36 2795.78,-289.15 2795.28,-296.13"/>
</g>
<!-- ui/qc&#45;loader.js&#45;&gt;log&#45;handling/logger.js -->
<g id="edge62" class="edge">
<title>ui/qc&#45;loader.js&#45;&gt;log&#45;handling/logger.js</title>
<path fill="none" stroke="#757575" d="M1581.17,-260C1611.49,-269.68 1649.4,-286 1675,-311.88 1738.96,-376.51 1767.55,-485.77 1777.45,-533.45"/>
<polygon fill="#757575" stroke="#757575" points="1774,-534.06 1779.37,-543.2 1780.87,-532.71 1774,-534.06"/>
</g>
</g>
</svg>
